<svg xmlns="http://www.w3.org/2000/svg" width="26.494" height="21.989" viewBox="0 0 26.494 21.989">
  <g id="store" transform="translate(-896.523 -244.6)">
    <path id="Path_291" data-name="Path 291" d="M922.683,249.779c-.606-1.19-1.232-2.381-1.859-3.571a2.8,2.8,0,0,0-2.673-1.608c-2.8,0-5.576.021-8.374.021-1.42,0-2.819-.021-4.218-.021h-4.093a2.874,2.874,0,0,0-2.736,1.65c-.626,1.19-1.253,2.381-1.879,3.592a2.729,2.729,0,0,0,.146,2.84A2.834,2.834,0,0,0,899.379,254c0,.084.021.167.021.251V264.48a2.048,2.048,0,0,0,2.088,2.109H918.11a2.038,2.038,0,0,0,2.067-2.088v-6.1c0-1.148-.021-2.3-.021-3.445v-.94a.671.671,0,0,1,.167-.021A2.861,2.861,0,0,0,922.683,249.779Zm-9.835,15.787c-.961-.021-1.921-.021-2.882-.021h-3.278m-1.524,0h-3.55a1.076,1.076,0,0,1-1.19-1.211V253.976c.731-.167,1.107-.773,1.587-1.211.334-.313.626-.647.961-.961a.908.908,0,0,1,1.316,0l1,1a1.939,1.939,0,0,0,2.652.063c.376-.334.71-.71,1.065-1.044a.892.892,0,0,1,1.357,0l.981.981a1.918,1.918,0,0,0,2.777.021c.355-.334.689-.689,1.023-1.023a.922.922,0,0,1,1.462.021c.543.543,1.065,1.086,1.608,1.608a1.418,1.418,0,0,0,.94.522v10.42a1.064,1.064,0,0,1-1.149,1.149h-3.654a.865.865,0,0,1-.209-.021m6.014-12.529h-.021c-.9.042-.919.042-1.545-.585-.459-.439-.9-.9-1.336-1.357a1.918,1.918,0,0,0-2.777,0l-1.065,1.065a.884.884,0,0,1-1.336,0c-.355-.334-.689-.689-1.023-1.023a1.909,1.909,0,0,0-2.694-.021l-1,1a.915.915,0,0,1-1.378,0c-.313-.313-.626-.647-.961-.961a1.949,1.949,0,0,0-2.819.021c-.543.543-1.086,1.107-1.65,1.65a.831.831,0,0,1-.438.188,5.174,5.174,0,0,1-.982-.021,1.762,1.762,0,0,1-1.4-2.506c.647-1.316,1.336-2.61,2.047-3.9a1.716,1.716,0,0,1,1.629-.9H909.8V245.6h2.631c1.963,0,3.9,0,5.868.021a1.759,1.759,0,0,1,1.608,1.023c.606,1.169,1.232,2.36,1.838,3.529A1.839,1.839,0,0,1,920.156,252.974Z" transform="translate(0 0)" fill="#590fb7"/>
  </g>
</svg>
